{
  "accessors": [
    {
      "bufferView": 0,
      "componentType": 5126,
      "count": 379,
      "max": [
        0.9999969005584717,
        0.026064865291118622,
        1.8250535726547241
      ],
      "min": [
        -1.0000100135803223,
        -0.16766999661922455,
        0.00016267900355160236
      ],
      "type": "VEC3"
    },
    {
      "bufferView": 1,
      "componentType": 5125,
      "count": 565,
      "type": "SCALAR"
    },
    {
      "bufferView": 2,
      "componentType": 5126,
      "count": 379,
      "type": "VEC3"
    },
    {
      "bufferView": 3,
      "componentType": 5126,
      "count": 379,
      "type": "VEC4"
    },
    {
      "bufferView": 4,
      "componentType": 5126,
      "count": 379,
      "type": "VEC2"
    },
    {
      "bufferView": 5,
      "componentType": 5126,
      "count": 37,
      "max": [
        0.9705990552902222,
        -0.0099312299862504,
        1.8008997440338135
      ],
      "min": [
        -0.9706119894981384,
        -0.0099312299862504,
        0.7489280104637146
      ],
      "type": "VEC3"
    },
    {
      "bufferView": 6,
      "componentType": 5125,
      "count": 82,
      "type": "SCALAR"
    },
    {
      "bufferView": 7,
      "componentType": 5126,
      "count": 37,
      "type": "VEC3"
    },
    {
      "bufferView": 8,
      "componentType": 5126,
      "count": 37,
      "type": "VEC4"
    },
    {
      "bufferView": 9,
      "componentType": 5126,
      "count": 37,
      "type": "VEC2"
    },
    {
      "bufferView": 10,
      "componentType": 5126,
      "count": 24,
      "max": [
        0.057255472987890244,
        0.037286531180143356,
        0.033624693751335144
      ],
      "min": [
        -0.05725559964776039,
        -0.03728659823536873,
        0.0005034729838371277
      ],
      "type": "VEC3"
    },
    {
      "bufferView": 11,
      "componentType": 5125,
      "count": 34,
      "type": "SCALAR"
    },
    {
      "bufferView": 12,
      "componentType": 5126,
      "count": 24,
      "type": "VEC3"
    },
    {
      "bufferView": 13,
      "componentType": 5126,
      "count": 24,
      "type": "VEC4"
    },
    {
      "bufferView": 14,
      "componentType": 5126,
      "count": 24,
      "type": "VEC2"
    },
    {
      "bufferView": 15,
      "componentType": 5126,
      "count": 34,
      "max": [
        0.010998282581567764,
        0.010998282581567764,
        0.08622343838214874
      ],
      "min": [
        -0.011001800186932087,
        -0.011001800186932087,
        -0.04759899899363518
      ],
      "type": "VEC3"
    },
    {
      "bufferView": 16,
      "componentType": 5125,
      "count": 45,
      "type": "SCALAR"
    },
    {
      "bufferView": 17,
      "componentType": 5126,
      "count": 34,
      "type": "VEC3"
    },
    {
      "bufferView": 18,
      "componentType": 5126,
      "count": 34,
      "type": "VEC4"
    },
    {
      "bufferView": 19,
      "componentType": 5126,
      "count": 34,
      "type": "VEC2"
    },
    {
      "bufferView": 20,
      "componentType": 5126,
      "count": 34,
      "max": [
        0.010998282581567764,
        0.010998282581567764,
        0.08622343838214874
      ],
      "min": [
        -0.011001800186932087,
        -0.011001800186932087,
        -0.04759899899363518
      ],
      "type": "VEC3"
    },
    {
      "bufferView": 21,
      "componentType": 5125,
      "count": 45,
      "type": "SCALAR"
    },
    {
      "bufferView": 22,
      "componentType": 5126,
      "count": 34,
      "type": "VEC3"
    },
    {
      "bufferView": 23,
      "componentType": 5126,
      "count": 34,
      "type": "VEC4"
    },
    {
      "bufferView": 24,
      "componentType": 5126,
      "count": 34,
      "type": "VEC2"
    },
    {
      "bufferView": 25,
      "componentType": 5126,
      "count": 34,
      "max": [
        0.010998282581567764,
        0.010998282581567764,
        0.08622343838214874
      ],
      "min": [
        -0.011001800186932087,
        -0.011001800186932087,
        -0.04759899899363518
      ],
      "type": "VEC3"
    },
    {
      "bufferView": 26,
      "componentType": 5125,
      "count": 45,
      "type": "SCALAR"
    },
    {
      "bufferView": 27,
      "componentType": 5126,
      "count": 34,
      "type": "VEC3"
    },
    {
      "bufferView": 28,
      "componentType": 5126,
      "count": 34,
      "type": "VEC4"
    },
    {
      "bufferView": 29,
      "componentType": 5126,
      "count": 34,
      "type": "VEC2"
    }
  ],
  "asset": {
    "version": "2.0"
  },
  "bufferViews": [
    {
      "buffer": 0,
      "byteLength": 4548,
      "target": 34962
    },
    {
      "buffer": 1,
      "byteLength": 2260,
      "target": 34963
    },
    {
      "buffer": 2,
      "byteLength": 4548,
      "target": 34962
    },
    {
      "buffer": 3,
      "byteLength": 6064,
      "target": 34962
    },
    {
      "buffer": 4,
      "byteLength": 3032,
      "target": 34962
    },
    {
      "buffer": 5,
      "byteLength": 444,
      "target": 34962
    },
    {
      "buffer": 6,
      "byteLength": 328,
      "target": 34963
    },
    {
      "buffer": 7,
      "byteLength": 444,
      "target": 34962
    },
    {
      "buffer": 8,
      "byteLength": 592,
      "target": 34962
    },
    {
      "buffer": 9,
      "byteLength": 296,
      "target": 34962
    },
    {
      "buffer": 10,
      "byteLength": 288,
      "target": 34962
    },
    {
      "buffer": 11,
      "byteLength": 136,
      "target": 34963
    },
    {
      "buffer": 12,
      "byteLength": 288,
      "target": 34962
    },
    {
      "buffer": 13,
      "byteLength": 384,
      "target": 34962
    },
    {
      "buffer": 14,
      "byteLength": 192,
      "target": 34962
    },
    {
      "buffer": 15,
      "byteLength": 408,
      "target": 34962
    },
    {
      "buffer": 16,
      "byteLength": 180,
      "target": 34963
    },
    {
      "buffer": 17,
      "byteLength": 408,
      "target": 34962
    },
    {
      "buffer": 18,
      "byteLength": 544,
      "target": 34962
    },
    {
      "buffer": 19,
      "byteLength": 272,
      "target": 34962
    },
    {
      "buffer": 20,
      "byteLength": 408,
      "target": 34962
    },
    {
      "buffer": 21,
      "byteLength": 180,
      "target": 34963
    },
    {
      "buffer": 22,
      "byteLength": 408,
      "target": 34962
    },
    {
      "buffer": 23,
      "byteLength": 544,
      "target": 34962
    },
    {
      "buffer": 24,
      "byteLength": 272,
      "target": 34962
    },
    {
      "buffer": 25,
      "byteLength": 408,
      "target": 34962
    },
    {
      "buffer": 26,
      "byteLength": 180,
      "target": 34963
    },
    {
      "buffer": 27,
      "byteLength": 408,
      "target": 34962
    },
    {
      "buffer": 28,
      "byteLength": 544,
      "target": 34962
    },
    {
      "buffer": 29,
      "byteLength": 272,
      "target": 34962
    }
  ],
  "buffers": [
    {
      "byteLength": 4548,
      "uri": "data:application/octet-stream;base64,"
    },
    {
      "byteLength": 2260,
      "uri": "data:application/octet-stream;base64,"
    },
    {
      "byteLength": 4548,
      "uri": "data:application/octet-stream;base64,"
    },
    {
      "byteLength": 6064,
      "uri": "data:application/octet-stream;base64,"
    },
    {
      "byteLength": 3032,
      "uri": "data:application/octet-stream;base64,"
    },
    {
      "byteLength": 444,
      "uri": "data:application/octet-stream;base64,"
    },
    {
      "byteLength": 328,
      "uri": "data:application/octet-stream;base64,"
    },
    {
      "byteLength": 444,
      "uri": "data:application/octet-stream;base64,"
    },
    {
      "byteLength": 592,
      "uri": "data:application/octet-stream;base64,"
    },
    {
      "byteLength": 296,
      "uri": "data:application/octet-stream;base64,"
    },
    {
      "byteLength": 288,
      "uri": "data:application/octet-stream;base64,"
    },
    {
      "byteLength": 136,
      "uri": "data:application/octet-stream;base64,"
    },
    {
      "byteLength": 288,
      "uri": "data:application/octet-stream;base64,"
    },
    {
      "byteLength": 384,
      "uri": "data:application/octet-stream;base64,"
    },
    {
      "byteLength": 192,
      "uri": "data:application/octet-stream;base64,"
    },
    {
      "byteLength": 408,
      "uri": "data:application/octet-stream;base64,"
    },
    {
      "byteLength": 180,
      "uri": "data:application/octet-stream;base64,"
    },
    {
      "byteLength": 408,
      "uri": "data:application/octet-stream;base64,"
    },
    {
      "byteLength": 544,
      "uri": "data:application/octet-stream;base64,"
    },
    {
      "byteLength": 272,
      "uri": "data:application/octet-stream;base64,"
    },
    {
      "byteLength": 408,
      "uri": "data:application/octet-stream;base64,"
    },
    {
      "byteLength": 180,
      "uri": "data:application/octet-stream;base64,"
    },
    {
      "byteLength": 408,
      "uri": "data:application/octet-stream;base64,"
    },
    {
      "byteLength": 544,
      "uri": "data:application/octet-stream;base64,"
    },
    {
      "byteLength": 272,
      "uri": "data:application/octet-stream;base64,"
    },
    {
      "byteLength": 408,
      "uri": "data:application/octet-stream;base64,"
    },
    {
      "byteLength": 180,
      "uri": "data:application/octet-stream;base64,"
    },
    {
      "byteLength": 408,
      "uri": "data:application/octet-stream;base64,"
    },
    {
      "byteLength": 544,
      "uri": "data:application/octet-stream;base64,"
    },
    {
      "byteLength": 272,
      "uri": "data:application/octet-stream;base64,"
    }
  ],
  "materials": [
    {
      "doubleSided": true,
      "name": "BoardDecor",
      "normalTexture" : {
      "index" : 1,
      "scale" : 2
      },
      "pbrMetallicRoughness": {
        "baseColorTexture" : {"index" : 2},
        "metallicFactor" : 0,
        "metallicRoughnessTexture" : { "index" : 5 },
        "baseColorFactor": [
          1.0,
          1.0,
          1.0,
          1.0
        ]
      }
    }
,   {
      "doubleSided": true,
      "name": "Board_Body",
      "normalTexture" : {
      "index" : 6,
      "scale" : 2
      },
      "pbrMetallicRoughness": {
        "baseColorTexture" : {"index" : 3},
        "metallicFactor" : 0,
        "metallicRoughnessTexture" : { "index" : 8 },
        "baseColorFactor": [
          1.0,
          1.0,
          1.0,
          1.0
        ]
      }
    }
,   {
      "doubleSided": true,
      "name": "Board_Display",
      "normalTexture" : {
      "index" : 4,
      "scale" : 2
      },
      "pbrMetallicRoughness": {
        "baseColorTexture" : {"index" : 0},
        "metallicFactor" : 0,
        "metallicRoughnessTexture" : { "index" : 7 },
        "baseColorFactor": [
          1.0,
          1.0,
          1.0,
          1.0
        ]
      }
    }
  ],
  "images": [
    {
         "uri" : "04849602ed744889b033ffa5222068fb_RGB_Board_Board_Display_wood_diffuse.png"
    },
    {
         "uri" : "19e3fe381286410eb89d2884eb293bcd_N_Board_BoardDecor_wood_normalmap.png"
    },
    {
         "uri" : "64448abc9a054d3c961eeccf03b330ba_RGB_Board_BoardDecor_wood_diffuse.png"
    },
    {
         "uri" : "6739aec29c03410f91c0f2f51e2ecbe3_RGB_Board_Board_Body_wood_diffuse.png"
    },
    {
         "uri" : "6dd56d4ce4874a0d881c37fba0545951_N_Board_Board_Display_wood_normalmap.png"
    },
    {
         "uri" : "c14e65e704154c6d99386f80b2facfeb_R_Board_BoardDecor_wood_roughness.png"
    },
    {
         "uri" : "d352b9590bdb4bd988c111ea61d4548f_N_Board_Board_Body_wood_normalmap.png"
    },
    {
         "uri" : "dc96819442214e7fba727e3709689d1a_R_Board_Board_Display_wood_roughness.png"
    },
    {
         "uri" : "fb9c26bddb2742ddb58900bed586ea51_R_Board_Board_Body_wood_roughness.png"
    }
  ],
  "textures": [
    {
         "source" : 0
    },
    {
         "source" : 1
    },
    {
         "source" : 2
    },
    {
         "source" : 3
    },
    {
         "source" : 4
    },
    {
         "source" : 5
    },
    {
         "source" : 6
    },
    {
         "source" : 7
    },
    {
         "source" : 8
    }
  ],
  "meshes": [
    {
      "name": "Board_Board_Body_0",
      "primitives": [
        {
          "attributes": {
            "NORMAL": 2,
            "POSITION": 0,
            "TANGENT": 3,
            "TEXCOORD_0": 4
          },
          "indices": 1,
          "material": 1,
          "mode": 5
        }
      ]
    },
    {
      "name": "Board_Board_Display_0",
      "primitives": [
        {
          "attributes": {
            "NORMAL": 7,
            "POSITION": 5,
            "TANGENT": 8,
            "TEXCOORD_0": 9
          },
          "indices": 6,
          "material": 2,
          "mode": 5
        }
      ]
    },
    {
      "name": "Sponge_BoardDecor_0",
      "primitives": [
        {
          "attributes": {
            "NORMAL": 12,
            "POSITION": 10,
            "TANGENT": 13,
            "TEXCOORD_0": 14
          },
          "indices": 11,
          "material": 0,
          "mode": 5
        }
      ]
    },
    {
      "name": "ChalkPen.001_BoardDecor_0",
      "primitives": [
        {
          "attributes": {
            "NORMAL": 17,
            "POSITION": 15,
            "TANGENT": 18,
            "TEXCOORD_0": 19
          },
          "indices": 16,
          "material": 0,
          "mode": 5
        }
      ]
    },
    {
      "name": "ChalkPen.002_BoardDecor_0",
      "primitives": [
        {
          "attributes": {
            "NORMAL": 22,
            "POSITION": 20,
            "TANGENT": 23,
            "TEXCOORD_0": 24
          },
          "indices": 21,
          "material": 0,
          "mode": 5
        }
      ]
    },
    {
      "name": "ChalkPen.003_BoardDecor_0",
      "primitives": [
        {
          "attributes": {
            "NORMAL": 27,
            "POSITION": 25,
            "TANGENT": 28,
            "TEXCOORD_0": 29
          },
          "indices": 26,
          "material": 0,
          "mode": 5
        }
      ]
    }
  ],
  "nodes": [
    {
      "mesh": 0,
      "name": "Board_Board_Body_0"
    },
    {
      "mesh": 1,
      "name": "Board_Board_Display_0"
    },
    {
      "children": [
        0,
        1
      ],
      "name": "Board",
      "rotation": [
        -1.32349e-23,
        0.0,
        0.0,
        1.0
      ],
      "scale": [
        1.0,
        1.0,
        1.0
      ],
      "translation": [
        0.0,
        0.0,
        0.0
      ]
    },
    {
      "mesh": 2,
      "name": "Sponge_BoardDecor_0"
    },
    {
      "children": [
        3
      ],
      "name": "Sponge",
      "rotation": [
        0.0,
        0.0,
        0.1809627017420303,
        0.9834899595716394
      ],
      "scale": [
        1.0,
        1.0,
        1.0
      ],
      "translation": [
        0.5309619903564453,
        -0.087677501142025,
        0.7028549909591675
      ]
    },
    {
      "mesh": 3,
      "name": "ChalkPen.001_BoardDecor_0"
    },
    {
      "children": [
        5
      ],
      "name": "ChalkPen.001",
      "rotation": [
        -0.16933296745561122,
        0.6824922364019618,
        0.167233645017136,
        0.6910597668495411
      ],
      "scale": [
        0.9999998211860657,
        1.0000005960464478,
        1.0000005960464478
      ],
      "translation": [
        -0.5646359920501709,
        -0.10178100317716599,
        0.7129610180854797
      ]
    },
    {
      "mesh": 4,
      "name": "ChalkPen.002_BoardDecor_0"
    },
    {
      "children": [
        7
      ],
      "name": "ChalkPen.002",
      "rotation": [
        -0.600480497666355,
        -0.2933653916596184,
        0.7060360229952861,
        -0.23424998000383637
      ],
      "scale": [
        0.999999463558197,
        0.9999995231628418,
        1.0
      ],
      "translation": [
        -0.47195300459861755,
        -0.0869423970580101,
        0.7099800109863281
      ]
    },
    {
      "mesh": 5,
      "name": "ChalkPen.003_BoardDecor_0"
    },
    {
      "children": [
        9
      ],
      "name": "ChalkPen.003",
      "rotation": [
        0.19174674457369614,
        0.6759118237047491,
        -0.18890805378781345,
        0.6860686115365149
      ],
      "scale": [
        1.000000238418579,
        1.0000005960464478,
        0.9999998807907104
      ],
      "translation": [
        -0.3496379852294922,
        -0.07574079930782318,
        0.711434006690979
      ]
    },
    {
      "children": [
        2,
        4,
        6,
        8,
        10
      ],
      "name": "BoardParent",
      "rotation": [
        -0.7071068387878171,
        0.0,
        0.0,
        0.7071067235852733
      ],
      "scale": [
        100.0,
        100.0,
        100.0
      ],
      "translation": [
        0.0,
        0.0,
        0.0
      ]
    },
    {
      "children": [
        11
      ],
      "name": "RootNode"
    },
    {
      "children": [
        12
      ],
      "name": "FurnitureSchoolBoard.fbx",
      "rotation": [
        1.1102230246251565e-16,
        0.0,
        0.0,
        1.0
      ],
      "scale": [
        0.009999999776482582,
        0.009999999776482582,
        0.009999999776482582
      ],
      "translation": [
        0.0,
        0.0,
        0.0
      ]
    }
  ],
  "scene": 0,
  "scenes": [
    {
      "nodes": [
        13
      ]
    }
  ]
}
